<?xml version="1.0" encoding="UTF-8"?>
<svg id="Layer_1" data-name="Layer 1" xmlns="http://www.w3.org/2000/svg" viewBox="0 0 976.24 938.12">
  <defs>
    <style>
      .cls-1 {
        fill: #393074;
      }

      .cls-1, .cls-2, .cls-3 {
        stroke: #231f20;
        stroke-width: 18px;
      }

      .cls-1, .cls-3 {
        stroke-linecap: round;
        stroke-linejoin: round;
      }

      .cls-2 {
        stroke-miterlimit: 10;
      }

      .cls-2, .cls-3 {
        fill: #715DF2;
      }
    </style>
  </defs>
  <path class="cls-2" d="M483.66,9c-105.68,0-191.35,85.67-191.35,191.35s85.67,191.35,191.35,191.35,191.35-85.67,191.35-191.35S589.34,9,483.66,9ZM483.49,348.71c-81.83,0-148.17-66.34-148.17-148.17S401.65,52.38,483.49,52.38s148.17,66.34,148.17,148.17-66.34,148.17-148.17,148.17Z"/>
  <polygon class="cls-1" points="381.89 603.31 84.27 301.02 12.93 790.96 381.89 603.31"/>
  <path class="cls-3" d="M438.81,661.13c-185.49,91.87-363.34,179.77-429.81,212.07,12.3,30.73,42.31,52.99,78.19,52.99h612.59l-260.97-265.06Z"/>
  <path class="cls-1" d="M912.3,426.31c-83.22,41.31-234.46,116.37-391.18,194.03l306.54,308.78h55.41c50.88,0,90.13-44.81,83.42-95.26l-54.19-407.55Z"/>
  <path class="cls-1" d="M463.18,561.97l437.57-222.56-9.17-69.01c-8.22-69.76-67.34-122.32-137.58-122.32H226.29c-47.08,0-89.14,23.62-114.24,60.19l351.13,353.7Z"/>
</svg>